<svg version="1.1" xmlns="http://www.w3.org/2000/svg" xmlns:xlink="http://www.w3.org/1999/xlink" width="40" height="40" viewBox="0 0 40 40"><defs></defs><g><path fill="rgb(33,27,25)" stroke="rgb(33,27,25)" paint-order="fill stroke markers" d=" M 0 0 L 4 0 L 4 4 L 0 4 L 0 0 Z" fill-opacity="1" stroke-opacity="1" stroke-linecap="round" stroke-miterlimit="10" stroke-dasharray=""></path><path fill="rgb(28,20,19)" stroke="rgb(28,20,19)" paint-order="fill stroke markers" d=" M 4 0 L 8 0 L 8 4 L 4 4 L 4 0 Z" fill-opacity="1" stroke-opacity="1" stroke-linecap="round" stroke-miterlimit="10" stroke-dasharray=""></path><path fill="rgb(29,22,20)" stroke="rgb(29,22,20)" paint-order="fill stroke markers" d=" M 8 0 L 12 0 L 12 4 L 8 4 L 8 0 Z" fill-opacity="1" stroke-opacity="1" stroke-linecap="round" stroke-miterlimit="10" stroke-dasharray=""></path><path fill="rgb(29,22,20)" stroke="rgb(29,22,20)" paint-order="fill stroke markers" d=" M 12 0 L 16 0 L 16 4 L 12 4 L 12 0 Z" fill-opacity="1" stroke-opacity="1" stroke-linecap="round" stroke-miterlimit="10" stroke-dasharray=""></path><path fill="rgb(28,20,19)" stroke="rgb(28,20,19)" paint-order="fill stroke markers" d=" M 16 0 L 20 0 L 20 4 L 16 4 L 16 0 Z" fill-opacity="1" stroke-opacity="1" stroke-linecap="round" stroke-miterlimit="10" stroke-dasharray=""></path><path fill="rgb(28,20,19)" stroke="rgb(28,20,19)" paint-order="fill stroke markers" d=" M 20 0 L 24 0 L 24 4 L 20 4 L 20 0 Z" fill-opacity="1" stroke-opacity="1" stroke-linecap="round" stroke-miterlimit="10" stroke-dasharray=""></path><path fill="rgb(29,22,20)" stroke="rgb(29,22,20)" paint-order="fill stroke markers" d=" M 24 0 L 28 0 L 28 4 L 24 4 L 24 0 Z" fill-opacity="1" stroke-opacity="1" stroke-linecap="round" stroke-miterlimit="10" stroke-dasharray=""></path><path fill="rgb(28,20,19)" stroke="rgb(28,20,19)" paint-order="fill stroke markers" d=" M 28 0 L 32 0 L 32 4 L 28 4 L 28 0 Z" fill-opacity="1" stroke-opacity="1" stroke-linecap="round" stroke-miterlimit="10" stroke-dasharray=""></path><path fill="rgb(29,22,20)" stroke="rgb(29,22,20)" paint-order="fill stroke markers" d=" M 32 0 L 36 0 L 36 4 L 32 4 L 32 0 Z" fill-opacity="1" stroke-opacity="1" stroke-linecap="round" stroke-miterlimit="10" stroke-dasharray=""></path><path fill="rgb(26,19,17)" stroke="rgb(26,19,17)" paint-order="fill stroke markers" d=" M 36 0 L 40 0 L 40 4 L 36 4 L 36 0 Z" fill-opacity="1" stroke-opacity="1" stroke-linecap="round" stroke-miterlimit="10" stroke-dasharray=""></path><path fill="rgb(46,42,41)" stroke="rgb(46,42,41)" paint-order="fill stroke markers" d=" M 0 4 L 4 4 L 4 8 L 0 8 L 0 4 Z" fill-opacity="1" stroke-opacity="1" stroke-linecap="round" stroke-miterlimit="10" stroke-dasharray=""></path><path fill="rgb(43,39,38)" stroke="rgb(43,39,38)" paint-order="fill stroke markers" d=" M 4 4 L 8 4 L 8 8 L 4 8 L 4 4 Z" fill-opacity="1" stroke-opacity="1" stroke-linecap="round" stroke-miterlimit="10" stroke-dasharray=""></path><path fill="rgb(38,32,31)" stroke="rgb(38,32,31)" paint-order="fill stroke markers" d=" M 8 4 L 12 4 L 12 8 L 8 8 L 8 4 Z" fill-opacity="1" stroke-opacity="1" stroke-linecap="round" stroke-miterlimit="10" stroke-dasharray=""></path><path fill="rgb(38,32,31)" stroke="rgb(38,32,31)" paint-order="fill stroke markers" d=" M 12 4 L 16 4 L 16 8 L 12 8 L 12 4 Z" fill-opacity="1" stroke-opacity="1" stroke-linecap="round" stroke-miterlimit="10" stroke-dasharray=""></path><path fill="rgb(38,32,31)" stroke="rgb(38,32,31)" paint-order="fill stroke markers" d=" M 16 4 L 20 4 L 20 8 L 16 8 L 16 4 Z" fill-opacity="1" stroke-opacity="1" stroke-linecap="round" stroke-miterlimit="10" stroke-dasharray=""></path><path fill="rgb(41,36,34)" stroke="rgb(41,36,34)" paint-order="fill stroke markers" d=" M 20 4 L 24 4 L 24 8 L 20 8 L 20 4 Z" fill-opacity="1" stroke-opacity="1" stroke-linecap="round" stroke-miterlimit="10" stroke-dasharray=""></path><path fill="rgb(38,32,31)" stroke="rgb(38,32,31)" paint-order="fill stroke markers" d=" M 24 4 L 28 4 L 28 8 L 24 8 L 24 4 Z" fill-opacity="1" stroke-opacity="1" stroke-linecap="round" stroke-miterlimit="10" stroke-dasharray=""></path><path fill="rgb(36,30,28)" stroke="rgb(36,30,28)" paint-order="fill stroke markers" d=" M 28 4 L 32 4 L 32 8 L 28 8 L 28 4 Z" fill-opacity="1" stroke-opacity="1" stroke-linecap="round" stroke-miterlimit="10" stroke-dasharray=""></path><path fill="rgb(31,24,22)" stroke="rgb(31,24,22)" paint-order="fill stroke markers" d=" M 32 4 L 36 4 L 36 8 L 32 8 L 32 4 Z" fill-opacity="1" stroke-opacity="1" stroke-linecap="round" stroke-miterlimit="10" stroke-dasharray=""></path><path fill="rgb(28,20,19)" stroke="rgb(28,20,19)" paint-order="fill stroke markers" d=" M 36 4 L 40 4 L 40 8 L 36 8 L 36 4 Z" fill-opacity="1" stroke-opacity="1" stroke-linecap="round" stroke-miterlimit="10" stroke-dasharray=""></path><path fill="rgb(74,72,72)" stroke="rgb(74,72,72)" paint-order="fill stroke markers" d=" M 0 8 L 4 8 L 4 12 L 0 12 L 0 8 Z" fill-opacity="1" stroke-opacity="1" stroke-linecap="round" stroke-miterlimit="10" stroke-dasharray=""></path><path fill="rgb(64,62,62)" stroke="rgb(64,62,62)" paint-order="fill stroke markers" d=" M 4 8 L 8 8 L 8 12 L 4 12 L 4 8 Z" fill-opacity="1" stroke-opacity="1" stroke-linecap="round" stroke-miterlimit="10" stroke-dasharray=""></path><path fill="rgb(59,57,56)" stroke="rgb(59,57,56)" paint-order="fill stroke markers" d=" M 8 8 L 12 8 L 12 12 L 8 12 L 8 8 Z" fill-opacity="1" stroke-opacity="1" stroke-linecap="round" stroke-miterlimit="10" stroke-dasharray=""></path><path fill="rgb(55,52,51)" stroke="rgb(55,52,51)" paint-order="fill stroke markers" d=" M 12 8 L 16 8 L 16 12 L 12 12 L 12 8 Z" fill-opacity="1" stroke-opacity="1" stroke-linecap="round" stroke-miterlimit="10" stroke-dasharray=""></path><path fill="rgb(50,47,46)" stroke="rgb(50,47,46)" paint-order="fill stroke markers" d=" M 16 8 L 20 8 L 20 12 L 16 12 L 16 8 Z" fill-opacity="1" stroke-opacity="1" stroke-linecap="round" stroke-miterlimit="10" stroke-dasharray=""></path><path fill="rgb(52,49,49)" stroke="rgb(52,49,49)" paint-order="fill stroke markers" d=" M 20 8 L 24 8 L 24 12 L 20 12 L 20 8 Z" fill-opacity="1" stroke-opacity="1" stroke-linecap="round" stroke-miterlimit="10" stroke-dasharray=""></path><path fill="rgb(48,45,44)" stroke="rgb(48,45,44)" paint-order="fill stroke markers" d=" M 24 8 L 28 8 L 28 12 L 24 12 L 24 8 Z" fill-opacity="1" stroke-opacity="1" stroke-linecap="round" stroke-miterlimit="10" stroke-dasharray=""></path><path fill="rgb(46,42,41)" stroke="rgb(46,42,41)" paint-order="fill stroke markers" d=" M 28 8 L 32 8 L 32 12 L 28 12 L 28 8 Z" fill-opacity="1" stroke-opacity="1" stroke-linecap="round" stroke-miterlimit="10" stroke-dasharray=""></path><path fill="rgb(33,27,25)" stroke="rgb(33,27,25)" paint-order="fill stroke markers" d=" M 32 8 L 36 8 L 36 12 L 32 12 L 32 8 Z" fill-opacity="1" stroke-opacity="1" stroke-linecap="round" stroke-miterlimit="10" stroke-dasharray=""></path><path fill="rgb(28,20,19)" stroke="rgb(28,20,19)" paint-order="fill stroke markers" d=" M 36 8 L 40 8 L 40 12 L 36 12 L 36 8 Z" fill-opacity="1" stroke-opacity="1" stroke-linecap="round" stroke-miterlimit="10" stroke-dasharray=""></path><path fill="rgb(140,140,141)" stroke="rgb(140,140,141)" paint-order="fill stroke markers" d=" M 0 12 L 4 12 L 4 16 L 0 16 L 0 12 Z" fill-opacity="1" stroke-opacity="1" stroke-linecap="round" stroke-miterlimit="10" stroke-dasharray=""></path><path fill="rgb(118,118,118)" stroke="rgb(118,118,118)" paint-order="fill stroke markers" d=" M 4 12 L 8 12 L 8 16 L 4 16 L 4 12 Z" fill-opacity="1" stroke-opacity="1" stroke-linecap="round" stroke-miterlimit="10" stroke-dasharray=""></path><path fill="rgb(95,94,94)" stroke="rgb(95,94,94)" paint-order="fill stroke markers" d=" M 8 12 L 12 12 L 12 16 L 8 16 L 8 12 Z" fill-opacity="1" stroke-opacity="1" stroke-linecap="round" stroke-miterlimit="10" stroke-dasharray=""></path><path fill="rgb(81,79,79)" stroke="rgb(81,79,79)" paint-order="fill stroke markers" d=" M 12 12 L 16 12 L 16 16 L 12 16 L 12 12 Z" fill-opacity="1" stroke-opacity="1" stroke-linecap="round" stroke-miterlimit="10" stroke-dasharray=""></path><path fill="rgb(71,70,69)" stroke="rgb(71,70,69)" paint-order="fill stroke markers" d=" M 16 12 L 20 12 L 20 16 L 16 16 L 16 12 Z" fill-opacity="1" stroke-opacity="1" stroke-linecap="round" stroke-miterlimit="10" stroke-dasharray=""></path><path fill="rgb(67,64,64)" stroke="rgb(67,64,64)" paint-order="fill stroke markers" d=" M 20 12 L 24 12 L 24 16 L 20 16 L 20 12 Z" fill-opacity="1" stroke-opacity="1" stroke-linecap="round" stroke-miterlimit="10" stroke-dasharray=""></path><path fill="rgb(59,57,56)" stroke="rgb(59,57,56)" paint-order="fill stroke markers" d=" M 24 12 L 28 12 L 28 16 L 24 16 L 24 12 Z" fill-opacity="1" stroke-opacity="1" stroke-linecap="round" stroke-miterlimit="10" stroke-dasharray=""></path><path fill="rgb(48,45,44)" stroke="rgb(48,45,44)" paint-order="fill stroke markers" d=" M 28 12 L 32 12 L 32 16 L 28 16 L 28 12 Z" fill-opacity="1" stroke-opacity="1" stroke-linecap="round" stroke-miterlimit="10" stroke-dasharray=""></path><path fill="rgb(36,30,28)" stroke="rgb(36,30,28)" paint-order="fill stroke markers" d=" M 32 12 L 36 12 L 36 16 L 32 16 L 32 12 Z" fill-opacity="1" stroke-opacity="1" stroke-linecap="round" stroke-miterlimit="10" stroke-dasharray=""></path><path fill="rgb(26,19,17)" stroke="rgb(26,19,17)" paint-order="fill stroke markers" d=" M 36 12 L 40 12 L 40 16 L 36 16 L 36 12 Z" fill-opacity="1" stroke-opacity="1" stroke-linecap="round" stroke-miterlimit="10" stroke-dasharray=""></path><path fill="rgb(178,178,179)" stroke="rgb(178,178,179)" paint-order="fill stroke markers" d=" M 0 16 L 4 16 L 4 20 L 0 20 L 0 16 Z" fill-opacity="1" stroke-opacity="1" stroke-linecap="round" stroke-miterlimit="10" stroke-dasharray=""></path><path fill="rgb(159,160,160)" stroke="rgb(159,160,160)" paint-order="fill stroke markers" d=" M 4 16 L 8 16 L 8 20 L 4 20 L 4 16 Z" fill-opacity="1" stroke-opacity="1" stroke-linecap="round" stroke-miterlimit="10" stroke-dasharray=""></path><path fill="rgb(137,138,138)" stroke="rgb(137,138,138)" paint-order="fill stroke markers" d=" M 8 16 L 12 16 L 12 20 L 8 20 L 8 16 Z" fill-opacity="1" stroke-opacity="1" stroke-linecap="round" stroke-miterlimit="10" stroke-dasharray=""></path><path fill="rgb(118,118,118)" stroke="rgb(118,118,118)" paint-order="fill stroke markers" d=" M 12 16 L 16 16 L 16 20 L 12 20 L 12 16 Z" fill-opacity="1" stroke-opacity="1" stroke-linecap="round" stroke-miterlimit="10" stroke-dasharray=""></path><path fill="rgb(97,96,96)" stroke="rgb(97,96,96)" paint-order="fill stroke markers" d=" M 16 16 L 20 16 L 20 20 L 16 20 L 16 16 Z" fill-opacity="1" stroke-opacity="1" stroke-linecap="round" stroke-miterlimit="10" stroke-dasharray=""></path><path fill="rgb(81,79,79)" stroke="rgb(81,79,79)" paint-order="fill stroke markers" d=" M 20 16 L 24 16 L 24 20 L 20 20 L 20 16 Z" fill-opacity="1" stroke-opacity="1" stroke-linecap="round" stroke-miterlimit="10" stroke-dasharray=""></path><path fill="rgb(71,70,69)" stroke="rgb(71,70,69)" paint-order="fill stroke markers" d=" M 24 16 L 28 16 L 28 20 L 24 20 L 24 16 Z" fill-opacity="1" stroke-opacity="1" stroke-linecap="round" stroke-miterlimit="10" stroke-dasharray=""></path><path fill="rgb(52,49,49)" stroke="rgb(52,49,49)" paint-order="fill stroke markers" d=" M 28 16 L 32 16 L 32 20 L 28 20 L 28 16 Z" fill-opacity="1" stroke-opacity="1" stroke-linecap="round" stroke-miterlimit="10" stroke-dasharray=""></path><path fill="rgb(38,32,31)" stroke="rgb(38,32,31)" paint-order="fill stroke markers" d=" M 32 16 L 36 16 L 36 20 L 32 20 L 32 16 Z" fill-opacity="1" stroke-opacity="1" stroke-linecap="round" stroke-miterlimit="10" stroke-dasharray=""></path><path fill="rgb(28,20,19)" stroke="rgb(28,20,19)" paint-order="fill stroke markers" d=" M 36 16 L 40 16 L 40 20 L 36 20 L 36 16 Z" fill-opacity="1" stroke-opacity="1" stroke-linecap="round" stroke-miterlimit="10" stroke-dasharray=""></path><path fill="rgb(196,197,197)" stroke="rgb(196,197,197)" paint-order="fill stroke markers" d=" M 0 20 L 4 20 L 4 24 L 0 24 L 0 20 Z" fill-opacity="1" stroke-opacity="1" stroke-linecap="round" stroke-miterlimit="10" stroke-dasharray=""></path><path fill="rgb(180,181,181)" stroke="rgb(180,181,181)" paint-order="fill stroke markers" d=" M 4 20 L 8 20 L 8 24 L 4 24 L 4 20 Z" fill-opacity="1" stroke-opacity="1" stroke-linecap="round" stroke-miterlimit="10" stroke-dasharray=""></path><path fill="rgb(159,160,160)" stroke="rgb(159,160,160)" paint-order="fill stroke markers" d=" M 8 20 L 12 20 L 12 24 L 8 24 L 8 20 Z" fill-opacity="1" stroke-opacity="1" stroke-linecap="round" stroke-miterlimit="10" stroke-dasharray=""></path><path fill="rgb(149,150,150)" stroke="rgb(149,150,150)" paint-order="fill stroke markers" d=" M 12 20 L 16 20 L 16 24 L 12 24 L 12 20 Z" fill-opacity="1" stroke-opacity="1" stroke-linecap="round" stroke-miterlimit="10" stroke-dasharray=""></path><path fill="rgb(130,130,131)" stroke="rgb(130,130,131)" paint-order="fill stroke markers" d=" M 16 20 L 20 20 L 20 24 L 16 24 L 16 20 Z" fill-opacity="1" stroke-opacity="1" stroke-linecap="round" stroke-miterlimit="10" stroke-dasharray=""></path><path fill="rgb(99,99,99)" stroke="rgb(99,99,99)" paint-order="fill stroke markers" d=" M 20 20 L 24 20 L 24 24 L 20 24 L 20 20 Z" fill-opacity="1" stroke-opacity="1" stroke-linecap="round" stroke-miterlimit="10" stroke-dasharray=""></path><path fill="rgb(81,79,79)" stroke="rgb(81,79,79)" paint-order="fill stroke markers" d=" M 24 20 L 28 20 L 28 24 L 24 24 L 24 20 Z" fill-opacity="1" stroke-opacity="1" stroke-linecap="round" stroke-miterlimit="10" stroke-dasharray=""></path><path fill="rgb(55,52,51)" stroke="rgb(55,52,51)" paint-order="fill stroke markers" d=" M 28 20 L 32 20 L 32 24 L 28 24 L 28 20 Z" fill-opacity="1" stroke-opacity="1" stroke-linecap="round" stroke-miterlimit="10" stroke-dasharray=""></path><path fill="rgb(38,32,31)" stroke="rgb(38,32,31)" paint-order="fill stroke markers" d=" M 32 20 L 36 20 L 36 24 L 32 24 L 32 20 Z" fill-opacity="1" stroke-opacity="1" stroke-linecap="round" stroke-miterlimit="10" stroke-dasharray=""></path><path fill="rgb(29,22,20)" stroke="rgb(29,22,20)" paint-order="fill stroke markers" d=" M 36 20 L 40 20 L 40 24 L 36 24 L 36 20 Z" fill-opacity="1" stroke-opacity="1" stroke-linecap="round" stroke-miterlimit="10" stroke-dasharray=""></path><path fill="rgb(214,215,216)" stroke="rgb(214,215,216)" paint-order="fill stroke markers" d=" M 0 24 L 4 24 L 4 28 L 0 28 L 0 24 Z" fill-opacity="1" stroke-opacity="1" stroke-linecap="round" stroke-miterlimit="10" stroke-dasharray=""></path><path fill="rgb(194,195,195)" stroke="rgb(194,195,195)" paint-order="fill stroke markers" d=" M 4 24 L 8 24 L 8 28 L 4 28 L 4 24 Z" fill-opacity="1" stroke-opacity="1" stroke-linecap="round" stroke-miterlimit="10" stroke-dasharray=""></path><path fill="rgb(187,188,188)" stroke="rgb(187,188,188)" paint-order="fill stroke markers" d=" M 8 24 L 12 24 L 12 28 L 8 28 L 8 24 Z" fill-opacity="1" stroke-opacity="1" stroke-linecap="round" stroke-miterlimit="10" stroke-dasharray=""></path><path fill="rgb(166,167,167)" stroke="rgb(166,167,167)" paint-order="fill stroke markers" d=" M 12 24 L 16 24 L 16 28 L 12 28 L 12 24 Z" fill-opacity="1" stroke-opacity="1" stroke-linecap="round" stroke-miterlimit="10" stroke-dasharray=""></path><path fill="rgb(142,142,143)" stroke="rgb(142,142,143)" paint-order="fill stroke markers" d=" M 16 24 L 20 24 L 20 28 L 16 28 L 16 24 Z" fill-opacity="1" stroke-opacity="1" stroke-linecap="round" stroke-miterlimit="10" stroke-dasharray=""></path><path fill="rgb(120,120,121)" stroke="rgb(120,120,121)" paint-order="fill stroke markers" d=" M 20 24 L 24 24 L 24 28 L 20 28 L 20 24 Z" fill-opacity="1" stroke-opacity="1" stroke-linecap="round" stroke-miterlimit="10" stroke-dasharray=""></path><path fill="rgb(92,91,92)" stroke="rgb(92,91,92)" paint-order="fill stroke markers" d=" M 24 24 L 28 24 L 28 28 L 24 28 L 24 24 Z" fill-opacity="1" stroke-opacity="1" stroke-linecap="round" stroke-miterlimit="10" stroke-dasharray=""></path><path fill="rgb(67,64,64)" stroke="rgb(67,64,64)" paint-order="fill stroke markers" d=" M 28 24 L 32 24 L 32 28 L 28 28 L 28 24 Z" fill-opacity="1" stroke-opacity="1" stroke-linecap="round" stroke-miterlimit="10" stroke-dasharray=""></path><path fill="rgb(36,30,28)" stroke="rgb(36,30,28)" paint-order="fill stroke markers" d=" M 32 24 L 36 24 L 36 28 L 32 28 L 32 24 Z" fill-opacity="1" stroke-opacity="1" stroke-linecap="round" stroke-miterlimit="10" stroke-dasharray=""></path><path fill="rgb(26,19,17)" stroke="rgb(26,19,17)" paint-order="fill stroke markers" d=" M 36 24 L 40 24 L 40 28 L 36 28 L 36 24 Z" fill-opacity="1" stroke-opacity="1" stroke-linecap="round" stroke-miterlimit="10" stroke-dasharray=""></path><path fill="rgb(233,233,233)" stroke="rgb(233,233,233)" paint-order="fill stroke markers" d=" M 0 28 L 4 28 L 4 32 L 0 32 L 0 28 Z" fill-opacity="1" stroke-opacity="1" stroke-linecap="round" stroke-miterlimit="10" stroke-dasharray=""></path><path fill="rgb(214,215,216)" stroke="rgb(214,215,216)" paint-order="fill stroke markers" d=" M 4 28 L 8 28 L 8 32 L 4 32 L 4 28 Z" fill-opacity="1" stroke-opacity="1" stroke-linecap="round" stroke-miterlimit="10" stroke-dasharray=""></path><path fill="rgb(196,197,197)" stroke="rgb(196,197,197)" paint-order="fill stroke markers" d=" M 8 28 L 12 28 L 12 32 L 8 32 L 8 28 Z" fill-opacity="1" stroke-opacity="1" stroke-linecap="round" stroke-miterlimit="10" stroke-dasharray=""></path><path fill="rgb(189,190,191)" stroke="rgb(189,190,191)" paint-order="fill stroke markers" d=" M 12 28 L 16 28 L 16 32 L 12 32 L 12 28 Z" fill-opacity="1" stroke-opacity="1" stroke-linecap="round" stroke-miterlimit="10" stroke-dasharray=""></path><path fill="rgb(159,160,160)" stroke="rgb(159,160,160)" paint-order="fill stroke markers" d=" M 16 28 L 20 28 L 20 32 L 16 32 L 16 28 Z" fill-opacity="1" stroke-opacity="1" stroke-linecap="round" stroke-miterlimit="10" stroke-dasharray=""></path><path fill="rgb(135,135,136)" stroke="rgb(135,135,136)" paint-order="fill stroke markers" d=" M 20 28 L 24 28 L 24 32 L 20 32 L 20 28 Z" fill-opacity="1" stroke-opacity="1" stroke-linecap="round" stroke-miterlimit="10" stroke-dasharray=""></path><path fill="rgb(115,115,116)" stroke="rgb(115,115,116)" paint-order="fill stroke markers" d=" M 24 28 L 28 28 L 28 32 L 24 32 L 24 28 Z" fill-opacity="1" stroke-opacity="1" stroke-linecap="round" stroke-miterlimit="10" stroke-dasharray=""></path><path fill="rgb(85,84,84)" stroke="rgb(85,84,84)" paint-order="fill stroke markers" d=" M 28 28 L 32 28 L 32 32 L 28 32 L 28 28 Z" fill-opacity="1" stroke-opacity="1" stroke-linecap="round" stroke-miterlimit="10" stroke-dasharray=""></path><path fill="rgb(43,39,38)" stroke="rgb(43,39,38)" paint-order="fill stroke markers" d=" M 32 28 L 36 28 L 36 32 L 32 32 L 32 28 Z" fill-opacity="1" stroke-opacity="1" stroke-linecap="round" stroke-miterlimit="10" stroke-dasharray=""></path><path fill="rgb(29,22,20)" stroke="rgb(29,22,20)" paint-order="fill stroke markers" d=" M 36 28 L 40 28 L 40 32 L 36 32 L 36 28 Z" fill-opacity="1" stroke-opacity="1" stroke-linecap="round" stroke-miterlimit="10" stroke-dasharray=""></path><path fill="rgb(237,237,237)" stroke="rgb(237,237,237)" paint-order="fill stroke markers" d=" M 0 32 L 4 32 L 4 36 L 0 36 L 0 32 Z" fill-opacity="1" stroke-opacity="1" stroke-linecap="round" stroke-miterlimit="10" stroke-dasharray=""></path><path fill="rgb(230,231,231)" stroke="rgb(230,231,231)" paint-order="fill stroke markers" d=" M 4 32 L 8 32 L 8 36 L 4 36 L 4 32 Z" fill-opacity="1" stroke-opacity="1" stroke-linecap="round" stroke-miterlimit="10" stroke-dasharray=""></path><path fill="rgb(217,217,218)" stroke="rgb(217,217,218)" paint-order="fill stroke markers" d=" M 8 32 L 12 32 L 12 36 L 8 36 L 8 32 Z" fill-opacity="1" stroke-opacity="1" stroke-linecap="round" stroke-miterlimit="10" stroke-dasharray=""></path><path fill="rgb(201,201,202)" stroke="rgb(201,201,202)" paint-order="fill stroke markers" d=" M 12 32 L 16 32 L 16 36 L 12 36 L 12 32 Z" fill-opacity="1" stroke-opacity="1" stroke-linecap="round" stroke-miterlimit="10" stroke-dasharray=""></path><path fill="rgb(185,185,186)" stroke="rgb(185,185,186)" paint-order="fill stroke markers" d=" M 16 32 L 20 32 L 20 36 L 16 36 L 16 32 Z" fill-opacity="1" stroke-opacity="1" stroke-linecap="round" stroke-miterlimit="10" stroke-dasharray=""></path><path fill="rgb(156,157,158)" stroke="rgb(156,157,158)" paint-order="fill stroke markers" d=" M 20 32 L 24 32 L 24 36 L 20 36 L 20 32 Z" fill-opacity="1" stroke-opacity="1" stroke-linecap="round" stroke-miterlimit="10" stroke-dasharray=""></path><path fill="rgb(125,125,126)" stroke="rgb(125,125,126)" paint-order="fill stroke markers" d=" M 24 32 L 28 32 L 28 36 L 24 36 L 24 32 Z" fill-opacity="1" stroke-opacity="1" stroke-linecap="round" stroke-miterlimit="10" stroke-dasharray=""></path><path fill="rgb(92,91,92)" stroke="rgb(92,91,92)" paint-order="fill stroke markers" d=" M 28 32 L 32 32 L 32 36 L 28 36 L 28 32 Z" fill-opacity="1" stroke-opacity="1" stroke-linecap="round" stroke-miterlimit="10" stroke-dasharray=""></path><path fill="rgb(46,42,41)" stroke="rgb(46,42,41)" paint-order="fill stroke markers" d=" M 32 32 L 36 32 L 36 36 L 32 36 L 32 32 Z" fill-opacity="1" stroke-opacity="1" stroke-linecap="round" stroke-miterlimit="10" stroke-dasharray=""></path><path fill="rgb(29,22,20)" stroke="rgb(29,22,20)" paint-order="fill stroke markers" d=" M 36 32 L 40 32 L 40 36 L 36 36 L 36 32 Z" fill-opacity="1" stroke-opacity="1" stroke-linecap="round" stroke-miterlimit="10" stroke-dasharray=""></path><path fill="rgb(243,244,244)" stroke="rgb(243,244,244)" paint-order="fill stroke markers" d=" M 0 36 L 4 36 L 4 40 L 0 40 L 0 36 Z" fill-opacity="1" stroke-opacity="1" stroke-linecap="round" stroke-miterlimit="10" stroke-dasharray=""></path><path fill="rgb(241,241,242)" stroke="rgb(241,241,242)" paint-order="fill stroke markers" d=" M 4 36 L 8 36 L 8 40 L 4 40 L 4 36 Z" fill-opacity="1" stroke-opacity="1" stroke-linecap="round" stroke-miterlimit="10" stroke-dasharray=""></path><path fill="rgb(233,233,233)" stroke="rgb(233,233,233)" paint-order="fill stroke markers" d=" M 8 36 L 12 36 L 12 40 L 8 40 L 8 36 Z" fill-opacity="1" stroke-opacity="1" stroke-linecap="round" stroke-miterlimit="10" stroke-dasharray=""></path><path fill="rgb(219,220,220)" stroke="rgb(219,220,220)" paint-order="fill stroke markers" d=" M 12 36 L 16 36 L 16 40 L 12 40 L 12 36 Z" fill-opacity="1" stroke-opacity="1" stroke-linecap="round" stroke-miterlimit="10" stroke-dasharray=""></path><path fill="rgb(203,204,204)" stroke="rgb(203,204,204)" paint-order="fill stroke markers" d=" M 16 36 L 20 36 L 20 40 L 16 40 L 16 36 Z" fill-opacity="1" stroke-opacity="1" stroke-linecap="round" stroke-miterlimit="10" stroke-dasharray=""></path><path fill="rgb(182,183,184)" stroke="rgb(182,183,184)" paint-order="fill stroke markers" d=" M 20 36 L 24 36 L 24 40 L 20 40 L 20 36 Z" fill-opacity="1" stroke-opacity="1" stroke-linecap="round" stroke-miterlimit="10" stroke-dasharray=""></path><path fill="rgb(156,157,158)" stroke="rgb(156,157,158)" paint-order="fill stroke markers" d=" M 24 36 L 28 36 L 28 40 L 24 40 L 24 36 Z" fill-opacity="1" stroke-opacity="1" stroke-linecap="round" stroke-miterlimit="10" stroke-dasharray=""></path><path fill="rgb(101,101,101)" stroke="rgb(101,101,101)" paint-order="fill stroke markers" d=" M 28 36 L 32 36 L 32 40 L 28 40 L 28 36 Z" fill-opacity="1" stroke-opacity="1" stroke-linecap="round" stroke-miterlimit="10" stroke-dasharray=""></path><path fill="rgb(48,45,44)" stroke="rgb(48,45,44)" paint-order="fill stroke markers" d=" M 32 36 L 36 36 L 36 40 L 32 40 L 32 36 Z" fill-opacity="1" stroke-opacity="1" stroke-linecap="round" stroke-miterlimit="10" stroke-dasharray=""></path><path fill="rgb(26,19,17)" stroke="rgb(26,19,17)" paint-order="fill stroke markers" d=" M 36 36 L 40 36 L 40 40 L 36 40 L 36 36 Z" fill-opacity="1" stroke-opacity="1" stroke-linecap="round" stroke-miterlimit="10" stroke-dasharray=""></path></g></svg>